<?xml version="1.0" encoding="iso-8859-1"?>
<!-- Generator: Adobe Illustrator 19.0.0, SVG Export Plug-In . SVG Version: 6.00 Build 0)  -->
<svg xmlns="http://www.w3.org/2000/svg" xmlns:xlink="http://www.w3.org/1999/xlink" version="1.1" id="Layer_1" x="0px" y="0px" viewBox="0 0 512 512" style="enable-background:new 0 0 512 512;" xml:space="preserve" width="512px" height="512px">
<g>
	<g>
		<path d="M323.498,145.534c14.037-9.05,25.834-21.508,35.087-37.21c16.818-28.54,21.366-60.611,23.811-77.84    c0.27-1.905,0.511-3.611,0.741-5.085L387.091,0l-24.735,6.997c-1.436,0.407-3.099,0.852-4.956,1.35    c-16.808,4.509-48.092,12.9-74.391,33.046c-10.473,8.023-19.097,17.164-25.825,27.298c-6.728-10.136-15.352-19.276-25.825-27.298    c-26.298-20.146-57.583-28.538-74.391-33.046c-1.858-0.498-3.521-0.943-4.956-1.35L127.276,0l3.956,25.399    c0.23,1.475,0.47,3.181,0.741,5.085c2.443,17.23,6.992,49.3,23.811,77.84c9.063,15.379,20.571,27.636,34.228,36.636    c-72.025,26.852-123.463,96.323-123.463,177.589C66.549,427.013,151.537,512,256,512s189.451-84.988,189.451-189.451    C445.453,241.851,394.731,172.788,323.498,145.534z M303.063,67.571c13.602-10.42,29.726-17.153,43.379-21.672    c-2.835,14.1-7.569,30.921-16.268,45.684c-12.688,21.533-30.904,33.879-55.354,37.486c-0.03-5.134-0.363-10.147-0.989-15.036    C277.171,95.35,286.843,79.994,303.063,67.571z M184.193,91.584C175.493,76.821,170.759,60,167.925,45.9    c13.653,4.519,29.778,11.251,43.379,21.672c16.219,12.424,25.891,27.779,29.232,46.463c-0.627,4.889-0.96,9.901-0.989,15.036    C215.099,125.461,196.88,113.116,184.193,91.584z M256.001,479.024c-86.282,0-156.476-70.195-156.476-156.476    s70.195-156.476,156.476-156.476s156.476,70.195,156.476,156.476C412.477,408.829,342.282,479.024,256.001,479.024z" fill="#2b2b2b"/>
	</g>
</g>
<g>
	<g>
		<path d="M194.27,214.096c-18.452,9.227-31.596,26.399-39.373,39.182c-9.845,16.181-16.864,34.625-19.762,51.935l32.523,5.445    c4.675-27.915,23.228-58.002,41.359-67.068L194.27,214.096z" fill="#2b2b2b"/>
	</g>
</g>
<g>
</g>
<g>
</g>
<g>
</g>
<g>
</g>
<g>
</g>
<g>
</g>
<g>
</g>
<g>
</g>
<g>
</g>
<g>
</g>
<g>
</g>
<g>
</g>
<g>
</g>
<g>
</g>
<g>
</g>
</svg>
